<?xml version="1.0" encoding="UTF-8"?>
<svg xmlns="http://www.w3.org/2000/svg" version="1.1" width="300" height="300" viewBox="0 0 300 300"><rect x="0" y="0" width="300" height="300" fill="#ffffff"/><g transform="scale(6.667)"><g transform="translate(2,2)"><path fill-rule="evenodd" d="M8 0L8 3L9 3L9 4L10 4L10 3L9 3L9 1L10 1L10 2L11 2L11 0ZM13 0L13 1L12 1L12 2L13 2L13 3L14 3L14 4L11 4L11 5L15 5L15 4L16 4L16 5L17 5L17 6L16 6L16 7L17 7L17 8L18 8L18 7L19 7L19 4L16 4L16 3L17 3L17 1L16 1L16 0L15 0L15 1L14 1L14 0ZM18 0L18 2L19 2L19 3L20 3L20 8L19 8L19 9L16 9L16 8L15 8L15 6L14 6L14 7L13 7L13 6L12 6L12 7L13 7L13 8L12 8L12 9L11 9L11 10L10 10L10 9L9 9L9 5L8 5L8 9L9 9L9 10L10 10L10 12L11 12L11 10L12 10L12 18L8 18L8 17L7 17L7 16L8 16L8 15L7 15L7 14L6 14L6 15L7 15L7 16L6 16L6 17L2 17L2 14L3 14L3 13L2 13L2 12L3 12L3 10L4 10L4 15L3 15L3 16L4 16L4 15L5 15L5 12L6 12L6 13L8 13L8 12L6 12L6 11L7 11L7 10L6 10L6 11L5 11L5 10L4 10L4 9L5 9L5 8L2 8L2 9L0 9L0 11L1 11L1 12L0 12L0 15L1 15L1 16L0 16L0 22L1 22L1 25L0 25L0 26L2 26L2 27L1 27L1 28L0 28L0 33L1 33L1 30L3 30L3 29L4 29L4 30L5 30L5 31L7 31L7 32L6 32L6 33L7 33L7 32L8 32L8 34L9 34L9 35L10 35L10 36L15 36L15 37L13 37L13 38L12 38L12 37L11 37L11 38L10 38L10 37L9 37L9 36L8 36L8 39L11 39L11 38L12 38L12 40L9 40L9 41L12 41L12 40L13 40L13 41L14 41L14 40L15 40L15 41L16 41L16 39L17 39L17 37L18 37L18 36L19 36L19 38L18 38L18 40L20 40L20 39L21 39L21 40L22 40L22 41L23 41L23 40L25 40L25 41L30 41L30 40L29 40L29 39L32 39L32 38L33 38L33 40L34 40L34 41L38 41L38 39L40 39L40 40L41 40L41 39L40 39L40 38L38 38L38 37L40 37L40 36L41 36L41 33L39 33L39 34L38 34L38 32L37 32L37 31L39 31L39 30L41 30L41 29L39 29L39 30L37 30L37 31L36 31L36 30L35 30L35 31L34 31L34 30L33 30L33 29L34 29L34 28L33 28L33 29L32 29L32 30L31 30L31 28L32 28L32 26L33 26L33 27L34 27L34 26L36 26L36 24L37 24L37 26L38 26L38 28L41 28L41 26L40 26L40 25L41 25L41 23L39 23L39 22L40 22L40 20L41 20L41 19L40 19L40 17L39 17L39 16L41 16L41 14L38 14L38 15L36 15L36 14L35 14L35 15L34 15L34 16L33 16L33 17L31 17L31 18L30 18L30 19L31 19L31 20L30 20L30 21L31 21L31 20L33 20L33 22L32 22L32 23L31 23L31 22L29 22L29 21L28 21L28 20L29 20L29 19L28 19L28 20L27 20L27 18L28 18L28 17L27 17L27 15L25 15L25 14L26 14L26 13L27 13L27 14L29 14L29 15L28 15L28 16L31 16L31 15L30 15L30 14L31 14L31 13L30 13L30 12L32 12L32 13L33 13L33 14L32 14L32 15L33 15L33 14L34 14L34 13L35 13L35 12L36 12L36 13L37 13L37 12L38 12L38 13L39 13L39 12L41 12L41 10L38 10L38 11L36 11L36 10L37 10L37 9L36 9L36 8L32 8L32 7L33 7L33 6L32 6L32 5L33 5L33 3L32 3L32 1L33 1L33 0L32 0L32 1L31 1L31 2L30 2L30 0L26 0L26 1L29 1L29 3L27 3L27 2L26 2L26 3L27 3L27 4L26 4L26 5L25 5L25 2L24 2L24 0L23 0L23 2L24 2L24 3L22 3L22 4L21 4L21 2L22 2L22 1L20 1L20 0ZM15 1L15 2L14 2L14 3L16 3L16 1ZM19 1L19 2L20 2L20 1ZM29 3L29 5L26 5L26 6L25 6L25 5L24 5L24 4L23 4L23 7L22 7L22 5L21 5L21 7L22 7L22 8L20 8L20 9L19 9L19 10L17 10L17 11L18 11L18 12L16 12L16 11L15 11L15 10L13 10L13 12L14 12L14 11L15 11L15 12L16 12L16 13L18 13L18 12L19 12L19 14L16 14L16 15L18 15L18 16L17 16L17 17L18 17L18 19L16 19L16 18L14 18L14 19L13 19L13 21L12 21L12 19L10 19L10 21L9 21L9 22L7 22L7 21L8 21L8 20L9 20L9 19L8 19L8 18L7 18L7 17L6 17L6 18L3 18L3 20L2 20L2 17L1 17L1 20L2 20L2 23L3 23L3 24L4 24L4 25L3 25L3 28L4 28L4 27L5 27L5 29L6 29L6 30L7 30L7 31L10 31L10 33L11 33L11 32L12 32L12 33L13 33L13 31L14 31L14 32L16 32L16 34L17 34L17 32L18 32L18 35L21 35L21 34L22 34L22 33L23 33L23 35L22 35L22 36L21 36L21 37L22 37L22 38L21 38L21 39L22 39L22 40L23 40L23 39L25 39L25 40L28 40L28 39L29 39L29 38L30 38L30 37L31 37L31 38L32 38L32 34L31 34L31 33L30 33L30 31L31 31L31 30L30 30L30 28L29 28L29 26L30 26L30 27L31 27L31 26L30 26L30 25L29 25L29 24L31 24L31 25L32 25L32 24L34 24L34 25L35 25L35 24L36 24L36 20L34 20L34 19L35 19L35 17L36 17L36 15L35 15L35 16L34 16L34 19L33 19L33 18L32 18L32 19L33 19L33 20L34 20L34 22L33 22L33 23L32 23L32 24L31 24L31 23L29 23L29 22L28 22L28 21L27 21L27 20L25 20L25 21L27 21L27 22L24 22L24 20L23 20L23 19L22 19L22 18L23 18L23 17L24 17L24 16L25 16L25 17L26 17L26 16L25 16L25 15L23 15L23 14L25 14L25 10L26 10L26 9L27 9L27 8L28 8L28 10L30 10L30 11L31 11L31 9L32 9L32 8L31 8L31 7L32 7L32 6L31 6L31 7L30 7L30 6L29 6L29 5L30 5L30 4L32 4L32 3ZM10 6L10 8L11 8L11 6ZM17 6L17 7L18 7L18 6ZM24 6L24 7L23 7L23 8L22 8L22 9L20 9L20 10L19 10L19 11L20 11L20 13L21 13L21 15L22 15L22 16L23 16L23 15L22 15L22 13L23 13L23 12L22 12L22 11L23 11L23 10L25 10L25 9L24 9L24 7L25 7L25 6ZM26 6L26 8L27 8L27 6ZM28 6L28 7L29 7L29 6ZM6 8L6 9L7 9L7 8ZM13 8L13 9L15 9L15 8ZM30 8L30 9L31 9L31 8ZM38 8L38 9L41 9L41 8ZM34 9L34 10L32 10L32 12L33 12L33 13L34 13L34 12L33 12L33 11L34 11L34 10L35 10L35 9ZM20 10L20 11L22 11L22 10ZM26 11L26 12L28 12L28 13L29 13L29 14L30 14L30 13L29 13L29 11ZM21 12L21 13L22 13L22 12ZM9 13L9 14L11 14L11 13ZM13 13L13 15L14 15L14 14L15 14L15 13ZM9 15L9 16L10 16L10 15ZM13 16L13 17L15 17L15 16ZM18 16L18 17L19 17L19 16ZM20 16L20 18L22 18L22 17L21 17L21 16ZM37 16L37 17L38 17L38 18L36 18L36 19L38 19L38 22L37 22L37 23L38 23L38 26L39 26L39 23L38 23L38 22L39 22L39 20L40 20L40 19L38 19L38 18L39 18L39 17L38 17L38 16ZM6 18L6 19L7 19L7 18ZM25 18L25 19L26 19L26 18ZM4 19L4 20L3 20L3 21L4 21L4 23L5 23L5 25L8 25L8 26L5 26L5 27L7 27L7 28L6 28L6 29L7 29L7 30L10 30L10 29L13 29L13 28L14 28L14 27L15 27L15 28L16 28L16 27L18 27L18 28L17 28L17 29L18 29L18 28L19 28L19 29L21 29L21 31L20 31L20 30L18 30L18 32L19 32L19 33L20 33L20 34L21 34L21 33L22 33L22 31L23 31L23 33L25 33L25 34L27 34L27 33L28 33L28 34L29 34L29 35L28 35L28 36L26 36L26 37L25 37L25 38L26 38L26 39L28 39L28 37L29 37L29 36L31 36L31 35L30 35L30 33L28 33L28 31L30 31L30 30L28 30L28 29L29 29L29 28L26 28L26 27L27 27L27 26L26 26L26 27L24 27L24 26L25 26L25 25L28 25L28 26L29 26L29 25L28 25L28 24L29 24L29 23L28 23L28 24L27 24L27 23L25 23L25 25L24 25L24 26L23 26L23 27L22 27L22 28L20 28L20 27L21 27L21 26L22 26L22 25L23 25L23 24L24 24L24 23L23 23L23 22L22 22L22 21L23 21L23 20L22 20L22 21L21 21L21 20L20 20L20 19L18 19L18 21L17 21L17 20L16 20L16 19L15 19L15 21L16 21L16 23L15 23L15 24L14 24L14 25L13 25L13 24L12 24L12 23L11 23L11 24L12 24L12 25L10 25L10 27L11 27L11 28L10 28L10 29L9 29L9 28L8 28L8 26L9 26L9 25L8 25L8 24L6 24L6 23L7 23L7 22L6 22L6 21L7 21L7 20L6 20L6 21L5 21L5 19ZM10 21L10 22L9 22L9 24L10 24L10 22L11 22L11 21ZM5 22L5 23L6 23L6 22ZM13 22L13 23L14 23L14 22ZM17 22L17 23L18 23L18 24L19 24L19 25L16 25L16 24L15 24L15 25L16 25L16 26L15 26L15 27L16 27L16 26L19 26L19 25L20 25L20 24L21 24L21 25L22 25L22 22L19 22L19 23L18 23L18 22ZM19 23L19 24L20 24L20 23ZM34 23L34 24L35 24L35 23ZM12 25L12 26L11 26L11 27L12 27L12 28L13 28L13 27L14 27L14 26L13 26L13 25ZM23 27L23 29L22 29L22 30L24 30L24 29L25 29L25 28L24 28L24 27ZM36 27L36 28L37 28L37 27ZM1 28L1 29L2 29L2 28ZM14 29L14 30L15 30L15 31L16 31L16 32L17 32L17 31L16 31L16 29ZM26 29L26 30L25 30L25 31L24 31L24 32L26 32L26 30L27 30L27 29ZM12 30L12 31L13 31L13 30ZM32 30L32 31L33 31L33 32L34 32L34 31L33 31L33 30ZM3 31L3 32L2 32L2 33L4 33L4 31ZM19 31L19 32L20 32L20 33L21 33L21 32L20 32L20 31ZM35 31L35 32L36 32L36 31ZM40 31L40 32L41 32L41 31ZM33 33L33 36L36 36L36 33ZM10 34L10 35L11 35L11 34ZM13 34L13 35L15 35L15 34ZM34 34L34 35L35 35L35 34ZM37 34L37 35L38 35L38 34ZM39 34L39 35L40 35L40 34ZM24 35L24 36L25 36L25 35ZM16 36L16 37L17 37L17 36ZM22 36L22 37L23 37L23 38L22 38L22 39L23 39L23 38L24 38L24 37L23 37L23 36ZM37 36L37 37L38 37L38 36ZM26 37L26 38L27 38L27 37ZM35 37L35 38L36 38L36 37ZM34 39L34 40L35 40L35 39ZM36 39L36 40L37 40L37 39ZM0 0L0 7L7 7L7 0ZM1 1L1 6L6 6L6 1ZM2 2L2 5L5 5L5 2ZM34 0L34 7L41 7L41 0ZM35 1L35 6L40 6L40 1ZM36 2L36 5L39 5L39 2ZM0 34L0 41L7 41L7 34ZM1 35L1 40L6 40L6 35ZM2 36L2 39L5 39L5 36Z" fill="#000000"/></g></g></svg>
